<svg width="790" height="150" viewBox="0 0 790 150" fill="none" xmlns="http://www.w3.org/2000/svg">
<path d="M789 43V42H790V43H789ZM473 42H475.469V44H473V42ZM480.406 42H485.344V44H480.406V42ZM490.281 42H495.219V44H490.281V42ZM500.156 42H505.094V44H500.156V42ZM510.031 42H514.969V44H510.031V42ZM519.906 42H524.844V44H519.906V42ZM529.781 42H534.719V44H529.781V42ZM539.656 42H544.594V44H539.656V42ZM549.531 42H554.469V44H549.531V42ZM559.406 42H564.344V44H559.406V42ZM569.281 42H574.219V44H569.281V42ZM579.156 42H584.094V44H579.156V42ZM589.031 42H593.969V44H589.031V42ZM598.906 42H603.844V44H598.906V42ZM608.781 42H613.719V44H608.781V42ZM618.656 42H623.594V44H618.656V42ZM628.531 42H633.469V44H628.531V42ZM638.406 42H643.344V44H638.406V42ZM648.281 42H653.219V44H648.281V42ZM658.156 42H663.094V44H658.156V42ZM668.031 42H672.969V44H668.031V42ZM677.906 42H682.844V44H677.906V42ZM687.781 42H692.719V44H687.781V42ZM697.656 42H702.594V44H697.656V42ZM707.531 42H712.469V44H707.531V42ZM717.406 42H722.344V44H717.406V42ZM727.281 42H732.219V44H727.281V42ZM737.156 42H742.094V44H737.156V42ZM747.031 42H751.969V44H747.031V42ZM756.906 42H761.844V44H756.906V42ZM766.781 42H771.719V44H766.781V42ZM776.656 42H781.594V44H776.656V42ZM786.531 42H789V44H786.531V42ZM790 43V45.4091H788V43H790ZM790 50.2273V55.0455H788V50.2273H790ZM790 59.8636V64.6818H788V59.8636H790ZM790 69.5V74.3182H788V69.5H790ZM790 79.1364V83.9545H788V79.1364H790ZM790 88.7727V93.5909H788V88.7727H790ZM790 98.4091V103.227H788V98.4091H790ZM790 108.045V112.864H788V108.045H790ZM790 117.682V122.5H788V117.682H790ZM790 127.318V132.136H788V127.318H790ZM790 136.955V141.773H788V136.955H790ZM790 146.591V149H788V146.591H790Z" fill="#1C1C1C"/>
<path d="M1.00001 43V42H9.53674e-06V43H1.00001ZM317 42H314.531V44H317V42ZM309.594 42H304.656V44H309.594V42ZM299.719 42H294.781V44H299.719V42ZM289.844 42H284.906V44H289.844V42ZM279.969 42H275.031V44H279.969V42ZM270.094 42H265.156V44H270.094V42ZM260.219 42H255.281V44H260.219V42ZM250.344 42H245.406V44H250.344V42ZM240.469 42H235.531V44H240.469V42ZM230.594 42H225.656V44H230.594V42ZM220.719 42H215.781V44H220.719V42ZM210.844 42H205.906V44H210.844V42ZM200.969 42H196.031V44H200.969V42ZM191.094 42H186.156V44H191.094V42ZM181.219 42H176.281V44H181.219V42ZM171.344 42H166.406V44H171.344V42ZM161.469 42H156.531V44H161.469V42ZM151.594 42H146.656V44H151.594V42ZM141.719 42H136.781V44H141.719V42ZM131.844 42H126.906V44H131.844V42ZM121.969 42H117.031V44H121.969V42ZM112.094 42H107.156V44H112.094V42ZM102.219 42H97.2813V44H102.219V42ZM92.3438 42H87.4063V44H92.3438V42ZM82.4688 42H77.5313V44H82.4688V42ZM72.5938 42H67.6563V44H72.5938V42ZM62.7188 42H57.7813V44H62.7188V42ZM52.8438 42H47.9063V44H52.8438V42ZM42.9688 42H38.0313V44H42.9688V42ZM33.0938 42H28.1563V44H33.0938V42ZM23.2188 42H18.2813V44H23.2188V42ZM13.3438 42H8.40626V44H13.3438V42ZM3.46876 42H1.00001V44H3.46876V42ZM9.53674e-06 43V45.4091H2.00001V43H9.53674e-06ZM9.53674e-06 50.2273V55.0455H2.00001V50.2273H9.53674e-06ZM9.53674e-06 59.8636V64.6818H2.00001V59.8636H9.53674e-06ZM9.53674e-06 69.5V74.3182H2.00001V69.5H9.53674e-06ZM9.53674e-06 79.1364V83.9545H2.00001V79.1364H9.53674e-06ZM9.53674e-06 88.7727V93.5909H2.00001V88.7727H9.53674e-06ZM9.53674e-06 98.4091V103.227H2.00001V98.4091H9.53674e-06ZM9.53674e-06 108.045V112.864H2.00001V108.045H9.53674e-06ZM9.53674e-06 117.682V122.5H2.00001V117.682H9.53674e-06ZM9.53674e-06 127.318V132.136H2.00001V127.318H9.53674e-06ZM9.53674e-06 136.955V141.773H2.00001V136.955H9.53674e-06ZM9.53674e-06 146.591V149H2.00001V146.591H9.53674e-06Z" fill="#1C1C1C"/>
<path d="M395 113C395 112.448 394.552 112 394 112C393.448 112 393 112.448 393 113H395ZM393.293 149.207C393.683 149.598 394.317 149.598 394.707 149.207L401.071 142.843C401.462 142.453 401.462 141.819 401.071 141.429C400.681 141.038 400.047 141.038 399.657 141.429L394 147.086L388.343 141.429C387.953 141.038 387.319 141.038 386.929 141.429C386.538 141.819 386.538 142.453 386.929 142.843L393.293 149.207ZM393 113V115.219H395V113H393ZM393 119.656V124.094H395V119.656H393ZM393 128.531V132.969H395V128.531H393ZM393 137.406V141.844H395V137.406H393ZM393 146.281V148.5H395V146.281H393Z" fill="#1C1C1C"/>
<path d="M381.75 89.8333H406.25C426.667 89.8333 434.834 81.6667 434.834 61.25V36.75C434.834 16.3334 426.667 8.16669 406.25 8.16669H381.75C361.334 8.16669 353.167 16.3334 353.167 36.75V61.25C353.167 81.6667 361.334 89.8333 381.75 89.8333Z" stroke="#E31E24" stroke-width="4" stroke-linecap="round" stroke-linejoin="round"/>
<path d="M408.292 39.8125C411.675 39.8125 414.417 37.0702 414.417 33.6875C414.417 30.3048 411.675 27.5625 408.292 27.5625C404.909 27.5625 402.167 30.3048 402.167 33.6875C402.167 37.0702 404.909 39.8125 408.292 39.8125Z" stroke="#E31E24" stroke-width="4" stroke-miterlimit="10" stroke-linecap="round" stroke-linejoin="round"/>
<path d="M379.708 39.8125C383.091 39.8125 385.833 37.0702 385.833 33.6875C385.833 30.3048 383.091 27.5625 379.708 27.5625C376.325 27.5625 373.583 30.3048 373.583 33.6875C373.583 37.0702 376.325 39.8125 379.708 39.8125Z" stroke="#E31E24" stroke-width="4" stroke-miterlimit="10" stroke-linecap="round" stroke-linejoin="round"/>
<path d="M379.3 54.3085H408.7C410.742 54.3085 412.375 55.9418 412.375 57.9835C412.375 68.151 404.168 76.3585 394 76.3585C383.833 76.3585 375.625 68.151 375.625 57.9835C375.625 55.9418 377.258 54.3085 379.3 54.3085Z" stroke="#E31E24" stroke-width="4" stroke-miterlimit="10" stroke-linecap="round" stroke-linejoin="round"/>
</svg>
