<svg width="34" height="34" viewBox="0 0 34 34" fill="none" xmlns="http://www.w3.org/2000/svg">
<path d="M16.9998 26.2082C22.0855 26.2082 26.2082 22.0855 26.2082 16.9999C26.2082 11.9143 22.0855 7.79156 16.9998 7.79156C11.9142 7.79156 7.7915 11.9143 7.7915 16.9999C7.7915 22.0855 11.9142 26.2082 16.9998 26.2082Z" stroke="white" stroke-width="2" stroke-linecap="round" stroke-linejoin="round"/>
<path d="M27.1152 27.1151L26.931 26.9309M26.931 7.06927L27.1152 6.8851L26.931 7.06927ZM6.88516 27.1151L7.06933 26.9309L6.88516 27.1151ZM17.0002 2.94677V2.83344V2.94677ZM17.0002 31.1668V31.0534V31.1668ZM2.94683 17.0001H2.8335H2.94683ZM31.1668 17.0001H31.0535H31.1668ZM7.06933 7.06927L6.88516 6.8851L7.06933 7.06927Z" stroke="white" stroke-width="3" stroke-linecap="round" stroke-linejoin="round"/>
</svg>
