<svg width="39" height="39" viewBox="0 0 39 39" fill="none" xmlns="http://www.w3.org/2000/svg">
<path d="M13.375 31.6975H12.5C5.5 31.6975 2 29.9475 2 21.1975V12.4475C2 5.44749 5.5 1.94749 12.5 1.94749H26.5C33.5 1.94749 37 5.44749 37 12.4475V21.1975C37 28.1975 33.5 31.6975 26.5 31.6975H25.625C25.0825 31.6975 24.5575 31.96 24.225 32.3975L21.6 35.8975C20.445 37.4375 18.555 37.4375 17.4 35.8975L14.775 32.3975C14.495 32.0125 13.8475 31.6975 13.375 31.6975Z" stroke="#E31E24" stroke-width="3" stroke-miterlimit="10" stroke-linecap="round" stroke-linejoin="round"/>
<path d="M26.4938 17.6975H26.5095" stroke="#E31E24" stroke-width="3" stroke-linecap="round" stroke-linejoin="round"/>
<path d="M19.4921 17.6975H19.5078" stroke="#E31E24" stroke-width="3" stroke-linecap="round" stroke-linejoin="round"/>
<path d="M12.4904 17.6975H12.5061" stroke="#E31E24" stroke-width="3" stroke-linecap="round" stroke-linejoin="round"/>
</svg>
