<svg width="98" height="98" viewBox="0 0 98 98" fill="none" xmlns="http://www.w3.org/2000/svg">
<path d="M36.7498 89.8333H61.2498C81.6665 89.8333 89.8332 81.6667 89.8332 61.25V36.75C89.8332 16.3334 81.6665 8.16669 61.2498 8.16669H36.7498C16.3332 8.16669 8.1665 16.3334 8.1665 36.75V61.25C8.1665 81.6667 16.3332 89.8333 36.7498 89.8333Z" stroke="#E31E24" stroke-width="4" stroke-linecap="round" stroke-linejoin="round"/>
<path d="M63.2915 39.8125C66.6742 39.8125 69.4165 37.0702 69.4165 33.6875C69.4165 30.3048 66.6742 27.5625 63.2915 27.5625C59.9088 27.5625 57.1665 30.3048 57.1665 33.6875C57.1665 37.0702 59.9088 39.8125 63.2915 39.8125Z" stroke="#E31E24" stroke-width="4" stroke-miterlimit="10" stroke-linecap="round" stroke-linejoin="round"/>
<path d="M34.7085 39.8125C38.0912 39.8125 40.8335 37.0702 40.8335 33.6875C40.8335 30.3048 38.0912 27.5625 34.7085 27.5625C31.3258 27.5625 28.5835 30.3048 28.5835 33.6875C28.5835 37.0702 31.3258 39.8125 34.7085 39.8125Z" stroke="#E31E24" stroke-width="4" stroke-miterlimit="10" stroke-linecap="round" stroke-linejoin="round"/>
<path d="M34.3 54.3085H63.7C65.7417 54.3085 67.375 55.9418 67.375 57.9835C67.375 68.151 59.1675 76.3585 49 76.3585C38.8325 76.3585 30.625 68.151 30.625 57.9835C30.625 55.9418 32.2583 54.3085 34.3 54.3085Z" stroke="#E31E24" stroke-width="4" stroke-miterlimit="10" stroke-linecap="round" stroke-linejoin="round"/>
</svg>
