<svg width="34" height="34" viewBox="0 0 34 34" fill="none" xmlns="http://www.w3.org/2000/svg">
<rect width="33.6602" height="33.6602" rx="16.8301" fill="#E31E24"/>
<path d="M15.6059 14.0026L15.202 24.7515H17.7377L17.3113 14.0026H15.6059ZM16.4811 8.90871C16.0622 8.90871 15.7106 9.05084 15.4264 9.33508C15.1421 9.61932 15 9.95592 15 10.3449C15 10.7638 15.1421 11.1078 15.4264 11.3771C15.7106 11.6464 16.0622 11.7811 16.4811 11.7811C16.8999 11.7811 17.244 11.6464 17.5133 11.3771C17.7826 11.1078 17.9172 10.7638 17.9172 10.3449C17.9172 9.95592 17.7826 9.61932 17.5133 9.33508C17.244 9.05084 16.8999 8.90871 16.4811 8.90871Z" fill="white"/>
</svg>
