<svg width="390" height="441" viewBox="0 0 390 441" fill="none" xmlns="http://www.w3.org/2000/svg">
<g clip-path="url(#clip0_4445_769)">
<path d="M326 387.686V442H12.3422V399.548L190.061 227.867C211.678 207.057 226.228 189.161 233.711 174.178C241.194 158.779 244.935 143.379 244.935 127.98C244.935 105.089 236.829 87.4011 220.616 74.9153C204.819 62.0132 181.954 55.5621 152.023 55.5621C103.8 55.5621 66.5932 71.3776 40.403 103.008L-2 66.1751C15.0444 45.3653 37.2852 29.1337 64.7224 17.4802C92.5754 5.82674 123.546 0 157.635 0C203.364 0 239.739 11.0292 266.76 33.0875C293.782 54.7297 307.293 84.2796 307.293 121.737C307.293 145.044 302.304 167.103 292.327 187.912C282.35 208.722 263.435 232.445 235.582 259.082L102.137 387.686H326Z" fill="#1C1C1C" fill-opacity="0.1"/>
</g>
<defs>
<clipPath id="clip0_4445_769">
<rect width="390" height="441" fill="white"/>
</clipPath>
</defs>
</svg>
