<svg width="390" height="441" viewBox="0 0 390 441" fill="none" xmlns="http://www.w3.org/2000/svg">
<path d="M194.226 183.127C237.11 187.28 269.793 200.568 292.276 222.992C314.759 245 326 273.237 326 307.703C326 332.619 319.755 355.25 307.264 375.597C294.774 395.53 276.038 411.517 251.057 423.559C226.493 435.186 196.308 441 160.502 441C129.276 441 99.2989 436.432 70.5709 427.297C41.8429 417.746 18.3193 404.665 0 388.055L28.728 338.847C43.7165 352.966 62.8685 364.386 86.1839 373.106C109.499 381.411 134.272 385.564 160.502 385.564C192.977 385.564 218.166 378.712 236.069 365.008C254.388 351.305 263.548 332.411 263.548 308.326C263.548 284.242 254.596 265.555 236.693 252.267C218.791 238.979 191.728 232.335 155.506 232.335H120.533V188.733L230.448 54.1907H19.9847V0H308.513V42.3559L194.226 183.127Z" fill="#1C1C1C" fill-opacity="0.1"/>
</svg>
