<svg width="790" height="197" viewBox="0 0 790 197" fill="none" xmlns="http://www.w3.org/2000/svg">
<path d="M789 94V95H790V94H789ZM473 95H475.469V93H473V95ZM480.406 95H485.344V93H480.406V95ZM490.281 95H495.219V93H490.281V95ZM500.156 95H505.094V93H500.156V95ZM510.031 95H514.969V93H510.031V95ZM519.906 95H524.844V93H519.906V95ZM529.781 95H534.719V93H529.781V95ZM539.656 95H544.594V93H539.656V95ZM549.531 95H554.469V93H549.531V95ZM559.406 95H564.344V93H559.406V95ZM569.281 95H574.219V93H569.281V95ZM579.156 95H584.094V93H579.156V95ZM589.031 95H593.969V93H589.031V95ZM598.906 95H603.844V93H598.906V95ZM608.781 95H613.719V93H608.781V95ZM618.656 95H623.594V93H618.656V95ZM628.531 95H633.469V93H628.531V95ZM638.406 95H643.344V93H638.406V95ZM648.281 95H653.219V93H648.281V95ZM658.156 95H663.094V93H658.156V95ZM668.031 95H672.969V93H668.031V95ZM677.906 95H682.844V93H677.906V95ZM687.781 95H692.719V93H687.781V95ZM697.656 95H702.594V93H697.656V95ZM707.531 95H712.469V93H707.531V95ZM717.406 95H722.344V93H717.406V95ZM727.281 95H732.219V93H727.281V95ZM737.156 95H742.094V93H737.156V95ZM747.031 95H751.969V93H747.031V95ZM756.906 95H761.844V93H756.906V95ZM766.781 95H771.719V93H766.781V95ZM776.656 95H781.594V93H776.656V95ZM786.531 95H789V93H786.531V95ZM790 94V91.4062H788V94H790ZM790 86.2187V81.0312H788V86.2187H790ZM790 75.8437V70.6562H788V75.8437H790ZM790 65.4687V60.2812H788V65.4687H790ZM790 55.0937V49.9062H788V55.0937H790ZM790 44.7187V39.5312H788V44.7187H790ZM790 34.3437V29.1562H788V34.3437H790ZM790 23.9687V18.7812H788V23.9687H790ZM790 13.5937V11H788V13.5937H790Z" fill="white"/>
<path d="M789 114V113H790V114H789ZM473 113H475.469V115H473V113ZM480.406 113H485.344V115H480.406V113ZM490.281 113H495.219V115H490.281V113ZM500.156 113H505.094V115H500.156V113ZM510.031 113H514.969V115H510.031V113ZM519.906 113H524.844V115H519.906V113ZM529.781 113H534.719V115H529.781V113ZM539.656 113H544.594V115H539.656V113ZM549.531 113H554.469V115H549.531V113ZM559.406 113H564.344V115H559.406V113ZM569.281 113H574.219V115H569.281V113ZM579.156 113H584.094V115H579.156V113ZM589.031 113H593.969V115H589.031V113ZM598.906 113H603.844V115H598.906V113ZM608.781 113H613.719V115H608.781V113ZM618.656 113H623.594V115H618.656V113ZM628.531 113H633.469V115H628.531V113ZM638.406 113H643.344V115H638.406V113ZM648.281 113H653.219V115H648.281V113ZM658.156 113H663.094V115H658.156V113ZM668.031 113H672.969V115H668.031V113ZM677.906 113H682.844V115H677.906V113ZM687.781 113H692.719V115H687.781V113ZM697.656 113H702.594V115H697.656V113ZM707.531 113H712.469V115H707.531V113ZM717.406 113H722.344V115H717.406V113ZM727.281 113H732.219V115H727.281V113ZM737.156 113H742.094V115H737.156V113ZM747.031 113H751.969V115H747.031V113ZM756.906 113H761.844V115H756.906V113ZM766.781 113H771.719V115H766.781V113ZM776.656 113H781.594V115H776.656V113ZM786.531 113H789V115H786.531V113ZM790 114V116.594H788V114H790ZM790 121.781V126.969H788V121.781H790ZM790 132.156V137.344H788V132.156H790ZM790 142.531V147.719H788V142.531H790ZM790 152.906V158.094H788V152.906H790ZM790 163.281V168.469H788V163.281H790ZM790 173.656V178.844H788V173.656H790ZM790 184.031V189.219H788V184.031H790ZM790 194.406V197H788V194.406H790Z" fill="white"/>
<path d="M1.00001 96V97H9.53674e-06V96H1.00001ZM317 97H314.531V95H317V97ZM309.594 97H304.656V95H309.594V97ZM299.719 97H294.781V95H299.719V97ZM289.844 97H284.906V95H289.844V97ZM279.969 97H275.031V95H279.969V97ZM270.094 97H265.156V95H270.094V97ZM260.219 97H255.281V95H260.219V97ZM250.344 97H245.406V95H250.344V97ZM240.469 97H235.531V95H240.469V97ZM230.594 97H225.656V95H230.594V97ZM220.719 97H215.781V95H220.719V97ZM210.844 97H205.906V95H210.844V97ZM200.969 97H196.031V95H200.969V97ZM191.094 97H186.156V95H191.094V97ZM181.219 97H176.281V95H181.219V97ZM171.344 97H166.406V95H171.344V97ZM161.469 97H156.531V95H161.469V97ZM151.594 97H146.656V95H151.594V97ZM141.719 97H136.781V95H141.719V97ZM131.844 97H126.906V95H131.844V97ZM121.969 97H117.031V95H121.969V97ZM112.094 97H107.156V95H112.094V97ZM102.219 97H97.2813V95H102.219V97ZM92.3438 97H87.4063V95H92.3438V97ZM82.4688 97H77.5313V95H82.4688V97ZM72.5938 97H67.6563V95H72.5938V97ZM62.7188 97H57.7813V95H62.7188V97ZM52.8438 97H47.9063V95H52.8438V97ZM42.9688 97H38.0313V95H42.9688V97ZM33.0938 97H28.1563V95H33.0938V97ZM23.2188 97H18.2813V95H23.2188V97ZM13.3438 97H8.40626V95H13.3438V97ZM3.46876 97H1.00001V95H3.46876V97ZM9.53674e-06 96V93.4375H2.00001V96H9.53674e-06ZM9.53674e-06 88.3125V83.1875H2.00001V88.3125H9.53674e-06ZM9.53674e-06 78.0625V72.9375H2.00001V78.0625H9.53674e-06ZM9.53674e-06 67.8125V62.6875H2.00001V67.8125H9.53674e-06ZM9.53674e-06 57.5625V52.4375H2.00001V57.5625H9.53674e-06ZM9.53674e-06 47.3125V42.1875H2.00001V47.3125H9.53674e-06ZM9.53674e-06 37.0625V31.9375H2.00001V37.0625H9.53674e-06ZM9.53674e-06 26.8125V21.6875H2.00001V26.8125H9.53674e-06ZM9.53674e-06 16.5625V14H2.00001V16.5625H9.53674e-06Z" fill="white"/>
<path d="M1.00001 112V111H9.53674e-06V112H1.00001ZM317 111H314.531V113H317V111ZM309.594 111H304.656V113H309.594V111ZM299.719 111H294.781V113H299.719V111ZM289.844 111H284.906V113H289.844V111ZM279.969 111H275.031V113H279.969V111ZM270.094 111H265.156V113H270.094V111ZM260.219 111H255.281V113H260.219V111ZM250.344 111H245.406V113H250.344V111ZM240.469 111H235.531V113H240.469V111ZM230.594 111H225.656V113H230.594V111ZM220.719 111H215.781V113H220.719V111ZM210.844 111H205.906V113H210.844V111ZM200.969 111H196.031V113H200.969V111ZM191.094 111H186.156V113H191.094V111ZM181.219 111H176.281V113H181.219V111ZM171.344 111H166.406V113H171.344V111ZM161.469 111H156.531V113H161.469V111ZM151.594 111H146.656V113H151.594V111ZM141.719 111H136.781V113H141.719V111ZM131.844 111H126.906V113H131.844V111ZM121.969 111H117.031V113H121.969V111ZM112.094 111H107.156V113H112.094V111ZM102.219 111H97.2813V113H102.219V111ZM92.3438 111H87.4063V113H92.3438V111ZM82.4688 111H77.5313V113H82.4688V111ZM72.5938 111H67.6563V113H72.5938V111ZM62.7188 111H57.7813V113H62.7188V111ZM52.8438 111H47.9063V113H52.8438V111ZM42.9688 111H38.0313V113H42.9688V111ZM33.0938 111H28.1563V113H33.0938V111ZM23.2188 111H18.2813V113H23.2188V111ZM13.3438 111H8.40626V113H13.3438V111ZM3.46876 111H1.00001V113H3.46876V111ZM9.53674e-06 112V114.563H2.00001V112H9.53674e-06ZM9.53674e-06 119.688V124.813H2.00001V119.688H9.53674e-06ZM9.53674e-06 129.938V135.063H2.00001V129.938H9.53674e-06ZM9.53674e-06 140.188V145.313H2.00001V140.188H9.53674e-06ZM9.53674e-06 150.438V155.563H2.00001V150.438H9.53674e-06ZM9.53674e-06 160.688V165.813H2.00001V160.688H9.53674e-06ZM9.53674e-06 170.938V176.063H2.00001V170.938H9.53674e-06ZM9.53674e-06 181.188V186.313H2.00001V181.188H9.53674e-06ZM9.53674e-06 191.438V194H2.00001V191.438H9.53674e-06Z" fill="white"/>
<path d="M382.75 139.833H407.25C427.666 139.833 435.833 131.667 435.833 111.25V86.7501C435.833 66.3334 427.666 58.1667 407.25 58.1667H382.75C362.333 58.1667 354.167 66.3334 354.167 86.7501V111.25C354.167 131.667 362.333 139.833 382.75 139.833Z" stroke="#E31E24" stroke-width="4" stroke-linecap="round" stroke-linejoin="round"/>
<path d="M409.292 89.8125C412.674 89.8125 415.417 87.0702 415.417 83.6875C415.417 80.3048 412.674 77.5625 409.292 77.5625C405.909 77.5625 403.167 80.3048 403.167 83.6875C403.167 87.0702 405.909 89.8125 409.292 89.8125Z" stroke="#E31E24" stroke-width="4" stroke-miterlimit="10" stroke-linecap="round" stroke-linejoin="round"/>
<path d="M380.708 89.8125C384.091 89.8125 386.833 87.0702 386.833 83.6875C386.833 80.3048 384.091 77.5625 380.708 77.5625C377.326 77.5625 374.583 80.3048 374.583 83.6875C374.583 87.0702 377.326 89.8125 380.708 89.8125Z" stroke="#E31E24" stroke-width="4" stroke-miterlimit="10" stroke-linecap="round" stroke-linejoin="round"/>
<path d="M380.3 104.308H409.7C411.742 104.308 413.375 105.942 413.375 107.983C413.375 118.151 405.168 126.358 395 126.358C384.833 126.358 376.625 118.151 376.625 107.983C376.625 105.942 378.258 104.308 380.3 104.308Z" stroke="#E31E24" stroke-width="4" stroke-miterlimit="10" stroke-linecap="round" stroke-linejoin="round"/>
<path d="M396 160.5C396 159.948 395.552 159.5 395 159.5C394.448 159.5 394 159.948 394 160.5H396ZM394.293 196.707C394.683 197.098 395.317 197.098 395.707 196.707L402.071 190.343C402.462 189.953 402.462 189.319 402.071 188.929C401.681 188.538 401.047 188.538 400.657 188.929L395 194.586L389.343 188.929C388.953 188.538 388.319 188.538 387.929 188.929C387.538 189.319 387.538 189.953 387.929 190.343L394.293 196.707ZM394 160.5V162.719H396V160.5H394ZM394 167.156V171.594H396V167.156H394ZM394 176.031V180.469H396V176.031H394ZM394 184.906V189.344H396V184.906H394ZM394 193.781V196H396V193.781H394Z" fill="white"/>
<path d="M396 36.5C396 37.0523 395.552 37.5 395 37.5C394.448 37.5 394 37.0523 394 36.5H396ZM394.293 0.292893C394.683 -0.0976311 395.317 -0.0976311 395.707 0.292893L402.071 6.65685C402.462 7.04738 402.462 7.68054 402.071 8.07107C401.681 8.46159 401.047 8.46159 400.657 8.07107L395 2.41421L389.343 8.07107C388.953 8.46159 388.319 8.46159 387.929 8.07107C387.538 7.68054 387.538 7.04738 387.929 6.65685L394.293 0.292893ZM394 36.5V34.2812H396V36.5H394ZM394 29.8438V25.4062H396V29.8438H394ZM394 20.9688V16.5312H396V20.9688H394ZM394 12.0938V7.65625H396V12.0938H394ZM394 3.21875V1H396V3.21875H394Z" fill="white"/>
</svg>
